<?xml version="1.0" encoding="UTF-8"?>
<svg width="512" height="512" viewBox="0 0 512 512" xmlns="http://www.w3.org/2000/svg">
  <!-- Dark background -->
  <rect width="512" height="512" fill="#1a1a2e"/>
  
  <!-- Connection arcs (rainbow gradient) -->
  <defs>
    <linearGradient id="arc1" x1="0%" y1="0%" x2="100%" y2="0%">
      <stop offset="0%" style="stop-color:#ff6b6b;stop-opacity:1" />
      <stop offset="100%" style="stop-color:#4a9eff;stop-opacity:1" />
    </linearGradient>
    <linearGradient id="arc2" x1="0%" y1="0%" x2="100%" y2="0%">
      <stop offset="0%" style="stop-color:#4ecdc4;stop-opacity:1" />
      <stop offset="100%" style="stop-color:#7c3aed;stop-opacity:1" />
    </linearGradient>
    <linearGradient id="arc3" x1="0%" y1="0%" x2="100%" y2="0%">
      <stop offset="0%" style="stop-color:#ffe66d;stop-opacity:1" />
      <stop offset="100%" style="stop-color:#ff6b9d;stop-opacity:1" />
    </linearGradient>
  </defs>
  
  <!-- Arc curves connecting nodes -->
  <path d="M 100 400 Q 256 200, 412 400" stroke="url(#arc1)" stroke-width="3" fill="none" opacity="0.8"/>
  <path d="M 150 420 Q 256 280, 362 420" stroke="url(#arc2)" stroke-width="2.5" fill="none" opacity="0.7"/>
  <path d="M 200 430 Q 256 320, 312 430" stroke="url(#arc3)" stroke-width="2" fill="none" opacity="0.6"/>
  
  <!-- Small connecting arcs -->
  <path d="M 180 440 Q 220 390, 260 440" stroke="#4a9eff" stroke-width="1.5" fill="none" opacity="0.5"/>
  <path d="M 252 440 Q 290 390, 332 440" stroke="#7c3aed" stroke-width="1.5" fill="none" opacity="0.5"/>
  
  <!-- Node circles at connection points -->
  <circle cx="100" cy="400" r="8" fill="#4a9eff" opacity="0.9"/>
  <circle cx="150" cy="420" r="7" fill="#4ecdc4" opacity="0.9"/>
  <circle cx="200" cy="430" r="6" fill="#ffe66d" opacity="0.9"/>
  <circle cx="180" cy="440" r="5" fill="#ff6b9d" opacity="0.9"/>
  <circle cx="260" cy="440" r="5" fill="#4a9eff" opacity="0.9"/>
  <circle cx="252" cy="440" r="5" fill="#7c3aed" opacity="0.9"/>
  <circle cx="312" cy="430" r="6" fill="#ff6b9d" opacity="0.9"/>
  <circle cx="332" cy="440" r="5" fill="#4ecdc4" opacity="0.9"/>
  <circle cx="362" cy="420" r="7" fill="#7c3aed" opacity="0.9"/>
  <circle cx="412" cy="400" r="8" fill="#ffe66d" opacity="0.9"/>
  
  <!-- Center symbol: graph icon -->
  <g transform="translate(256, 150)">
    <!-- Central node -->
    <circle cx="0" cy="0" r="20" fill="none" stroke="#4a9eff" stroke-width="3"/>
    <circle cx="0" cy="0" r="8" fill="#4a9eff"/>
    
    <!-- Connected nodes -->
    <line x1="0" y1="0" x2="-60" y2="-40" stroke="#4ecdc4" stroke-width="2" opacity="0.7"/>
    <circle cx="-60" cy="-40" r="12" fill="none" stroke="#4ecdc4" stroke-width="2.5"/>
    <circle cx="-60" cy="-40" r="5" fill="#4ecdc4"/>
    
    <line x1="0" y1="0" x2="60" y2="-40" stroke="#7c3aed" stroke-width="2" opacity="0.7"/>
    <circle cx="60" cy="-40" r="12" fill="none" stroke="#7c3aed" stroke-width="2.5"/>
    <circle cx="60" cy="-40" r="5" fill="#7c3aed"/>
    
    <line x1="0" y1="0" x2="0" y2="60" stroke="#ffe66d" stroke-width="2" opacity="0.7"/>
    <circle cx="0" cy="60" r="12" fill="none" stroke="#ffe66d" stroke-width="2.5"/>
    <circle cx="0" cy="60" r="5" fill="#ffe66d"/>
  </g>
  
  <!-- Text label -->
  <text x="256" y="480" font-family="system-ui, -apple-system, sans-serif" font-size="36" font-weight="600" fill="#4a9eff" text-anchor="middle" opacity="0.9">
    CodeGraph
  </text>
</svg>