<svg width="512" height="512" viewBox="0 0 128 128" xmlns="http://www.w3.org/2000/svg">
  <defs>
    <linearGradient id="bg" x1="0" y1="0" x2="1" y2="1">
      <stop offset="0%" stop-color="#0d1b2a"/>
      <stop offset="100%" stop-color="#1b2d45"/>
    </linearGradient>
    <linearGradient id="arc1" x1="0" y1="0" x2="1" y2="1">
      <stop offset="0%" stop-color="#00d4aa"/>
      <stop offset="100%" stop-color="#00b4d8"/>
    </linearGradient>
    <linearGradient id="arc2" x1="0" y1="0" x2="1" y2="1">
      <stop offset="0%" stop-color="#00b4d8"/>
      <stop offset="100%" stop-color="#0077b6"/>
    </linearGradient>
    <linearGradient id="arc3" x1="0" y1="0" x2="1" y2="1">
      <stop offset="0%" stop-color="#48cae4"/>
      <stop offset="100%" stop-color="#00d4aa"/>
    </linearGradient>
  </defs>
  <rect width="128" height="128" rx="28" fill="url(#bg)"/>
  <!-- Vertical bar of D -->
  <rect x="32" y="24" width="6" height="80" rx="3" fill="url(#arc1)" opacity="0.9"/>
  <!-- Three arc wires forming the curve of D -->
  <path d="M 35 28 Q 96 28, 96 64 Q 96 100, 35 100" fill="none" stroke="url(#arc1)" stroke-width="3.5" stroke-linecap="round" opacity="0.85"/>
  <path d="M 35 38 Q 82 38, 82 64 Q 82 90, 35 90" fill="none" stroke="url(#arc2)" stroke-width="3" stroke-linecap="round" opacity="0.7"/>
  <path d="M 35 48 Q 68 48, 68 64 Q 68 80, 35 80" fill="none" stroke="url(#arc3)" stroke-width="2.5" stroke-linecap="round" opacity="0.6"/>
  <!-- Connection nodes -->
  <circle cx="35" cy="28" r="4" fill="#00d4aa"/>
  <circle cx="35" cy="64" r="3.5" fill="#00b4d8"/>
  <circle cx="35" cy="100" r="4" fill="#00d4aa"/>
  <circle cx="96" cy="64" r="4" fill="#48cae4"/>
  <circle cx="82" cy="38" r="2.5" fill="#00b4d8" opacity="0.7"/>
  <circle cx="82" cy="90" r="2.5" fill="#00b4d8" opacity="0.7"/>
</svg>
